<svg width="540px" height="540px" viewBox="0 0 540 540" version="1.1" xmlns="http://www.w3.org/2000/svg" xmlns:xlink="http://www.w3.org/1999/xlink">
    <g id="Page-1" stroke="none" stroke-width="1" fill="none" fill-rule="evenodd">
        <g id="Artboard" fill="#FFFFFF">
            <g id="white" transform="translate(18.000000, 18.000000)">
                <path d="M248.136,120.624 C177.713067,120.624 120.624,177.713067 120.624,248.136 C120.624,318.558933 177.713067,375.648 248.136,375.648 C318.558933,375.648 375.648,318.558933 375.648,248.136 C375.648,214.317715 362.213739,181.884539 338.3006,157.9714 C314.387461,134.058261 281.954285,120.624 248.136,120.624 Z M248.136,330.96 C202.393568,330.96 165.312,293.878432 165.312,248.136 C165.312,202.393568 202.393568,165.312 248.136,165.312 C293.878432,165.312 330.96,202.393568 330.96,248.136 C330.96,293.878432 293.878432,330.96 248.136,330.96 Z" id="Shape" fill-rule="nonzero"></path>
                <circle id="Oval" cx="380.688" cy="115.92" r="29.736"></circle>
                <path d="M483.504,85.68 C470.599684,52.3549802 444.25302,26.0083156 410.928,13.104 C391.624339,5.85659803 371.230935,1.9369743 350.616,1.512 C324.072,0.336 315.672,0 248.304,0 C180.936,0 172.368,0 145.992,1.512 C125.377065,1.9369743 104.983661,5.85659803 85.68,13.104 C52.3549802,26.0083156 26.0083156,52.3549802 13.104,85.68 C5.85659803,104.983661 1.9369743,125.377065 1.512,145.992 C0.336,172.536 0,180.936 0,248.304 C0,315.672 0,324.24 1.512,350.616 C1.9369743,371.230935 5.85659803,391.624339 13.104,410.928 C26.0083156,444.25302 52.3549802,470.599684 85.68,483.504 C104.933459,491.03847 125.328435,495.242449 145.992,495.936 C172.536,497.112 180.936,497.448 248.304,497.448 C315.672,497.448 324.24,497.448 350.616,495.936 C371.230935,495.511026 391.624339,491.591402 410.928,484.344 C444.25302,471.439684 470.599684,445.09302 483.504,411.768 C490.751402,392.464339 494.671026,372.070935 495.096,351.456 C496.272,324.912 496.608,316.512 496.608,249.144 C496.608,181.776 496.608,173.208 495.096,146.832 C494.766454,125.93417 490.845303,105.248679 483.504,85.68 Z M449.904,348.6 C449.760135,364.490713 446.861171,380.236069 441.336,395.136 C432.97365,416.833149 415.825149,433.98165 394.128,442.344 C379.387099,447.812194 363.817152,450.710249 348.096,450.912 C321.888,452.088 314.496,452.424 247.296,452.424 C180.096,452.424 173.208,452.424 146.496,450.912 C130.774848,450.710249 115.204901,447.812194 100.464,442.344 C78.6913698,434.039359 61.4699336,416.878991 53.088,395.136 C47.6198065,380.395099 44.7217507,364.825152 44.52,349.104 C43.344,322.896 43.008,315.504 43.008,248.304 C43.008,181.104 43.008,174.216 44.52,147.504 C44.663865,131.613287 47.5628294,115.867931 53.088,100.968 C61.4699336,79.2250085 78.6913698,62.0646412 100.464,53.76 C115.204901,48.2918065 130.774848,45.3937507 146.496,45.192 C172.704,44.016 180.096,43.68 247.296,43.68 C314.496,43.68 321.384,43.68 348.096,45.192 C363.817152,45.3937507 379.387099,48.2918065 394.128,53.76 C415.825149,62.1223499 432.97365,79.2708505 441.336,100.968 C446.804194,115.708901 449.702249,131.278848 449.904,147 C451.08,173.208 451.416,180.6 451.416,247.8 C451.416,315 451.416,322.224 450.24,348.6 L449.904,348.6 Z" id="Shape" fill-rule="nonzero"></path>
            </g>
        </g>
    </g>
</svg>